# xmcd
#
# Track frame offsets: 
#        150
#        11549
#        27730
#        44572
#        59249
#        75352
#        94853
#        107945
#        125945
#        141614
#        155114
#
# Disc length: 2312 seconds
#
# Revision: 6
# Processed by: cddbd v1.5.2PL0 Copyright (c) Steve Scherf et al.
# Submitted via: ExactAudioCopyFreeDBPlugin 1.0
#
DISCID=aa09060b
DTITLE=Dolly Parton - Linda Ronstadt - Emmylou Harris - 1987 - Trio Cd 1
DYEAR=1987
DGENRE=Country
TTITLE0=The Pain Of Loving You
TTITLE1=Making Plans
TTITLE2=To Know Him Is To Love Him
TTITLE3=Hobo's Meditation
TTITLE4=Wildflowers
TTITLE5=Telling Me Lies
TTITLE6=My Dear Companion
TTITLE7=Those Memories Of You
TTITLE8=I've Had Enough
TTITLE9=Rosewood Casket
TTITLE10=Farther Along
EXTD=YEAR: 1987 ID3G:   2
EXTT0=
EXTT1=
EXTT2=
EXTT3=
EXTT4=
EXTT5=
EXTT6=
EXTT7=
EXTT8=
EXTT9=
EXTT10=
PLAYORDER=
